<svg width="236" height="59" viewBox="0 0 236 59" fill="none" xmlns="http://www.w3.org/2000/svg">
<path d="M51.1328 37.1094C51.1328 36.0938 50.7109 35.3203 49.8672 34.7891C49.0391 34.2578 47.6562 33.7891 45.7188 33.3828C43.7812 32.9766 42.1641 32.4609 40.8672 31.8359C38.0234 30.4609 36.6016 28.4688 36.6016 25.8594C36.6016 23.6719 37.5234 21.8438 39.3672 20.375C41.2109 18.9062 43.5547 18.1719 46.3984 18.1719C49.4297 18.1719 51.875 18.9219 53.7344 20.4219C55.6094 21.9219 56.5469 23.8672 56.5469 26.2578H50.8516C50.8516 25.1641 50.4453 24.2578 49.6328 23.5391C48.8203 22.8047 47.7422 22.4375 46.3984 22.4375C45.1484 22.4375 44.125 22.7266 43.3281 23.3047C42.5469 23.8828 42.1562 24.6562 42.1562 25.625C42.1562 26.5 42.5234 27.1797 43.2578 27.6641C43.9922 28.1484 45.4766 28.6406 47.7109 29.1406C49.9453 29.625 51.6953 30.2109 52.9609 30.8984C54.2422 31.5703 55.1875 32.3828 55.7969 33.3359C56.4219 34.2891 56.7344 35.4453 56.7344 36.8047C56.7344 39.0859 55.7891 40.9375 53.8984 42.3594C52.0078 43.7656 49.5312 44.4688 46.4688 44.4688C44.3906 44.4688 42.5391 44.0938 40.9141 43.3438C39.2891 42.5938 38.0234 41.5625 37.1172 40.25C36.2109 38.9375 35.7578 37.5234 35.7578 36.0078H41.2891C41.3672 37.3516 41.875 38.3906 42.8125 39.125C43.75 39.8438 44.9922 40.2031 46.5391 40.2031C48.0391 40.2031 49.1797 39.9219 49.9609 39.3594C50.7422 38.7812 51.1328 38.0312 51.1328 37.1094ZM70.5859 35.8438L75.7422 18.6406H81.8125L71.7344 47.8438C70.1875 52.1094 67.5625 54.2422 63.8594 54.2422C63.0312 54.2422 62.1172 54.1016 61.1172 53.8203V49.4141L62.1953 49.4844C63.6328 49.4844 64.7109 49.2188 65.4297 48.6875C66.1641 48.1719 66.7422 47.2969 67.1641 46.0625L67.9844 43.8828L59.0781 18.6406H65.2188L70.5859 35.8438ZM90.3906 18.6406L90.5547 21.5703C92.4297 19.3047 94.8906 18.1719 97.9375 18.1719C103.219 18.1719 105.906 21.1953 106 27.2422V44H100.305V27.5703C100.305 25.9609 99.9531 24.7734 99.25 24.0078C98.5625 23.2266 97.4297 22.8359 95.8516 22.8359C93.5547 22.8359 91.8438 23.875 90.7188 25.9531V44H85.0234V18.6406H90.3906ZM110.758 31.1094C110.758 27.1406 111.664 23.9922 113.477 21.6641C115.289 19.3359 117.742 18.1719 120.836 18.1719C123.664 18.1719 125.906 19.1641 127.562 21.1484L127.891 18.6406H132.953V53.75H127.258V41.8438C125.602 43.5938 123.445 44.4688 120.789 44.4688C117.758 44.4688 115.328 43.2891 113.5 40.9297C111.672 38.5547 110.758 35.2812 110.758 31.1094ZM116.453 31.6016C116.453 34.1953 116.961 36.2344 117.977 37.7188C119.008 39.1875 120.43 39.9219 122.242 39.9219C124.492 39.9219 126.164 38.9609 127.258 37.0391V25.5078C126.164 23.6641 124.508 22.7422 122.289 22.7422C120.477 22.7422 119.047 23.4688 118 24.9219C116.969 26.375 116.453 28.6016 116.453 31.6016ZM145.164 44H139.469V18.6406H145.164V44ZM139.117 12.0547C139.117 11.1797 139.391 10.4531 139.938 9.875C140.5 9.29687 141.297 9.00781 142.328 9.00781C143.359 9.00781 144.156 9.29687 144.719 9.875C145.281 10.4531 145.562 11.1797 145.562 12.0547C145.562 12.9141 145.281 13.6328 144.719 14.2109C144.156 14.7734 143.359 15.0547 142.328 15.0547C141.297 15.0547 140.5 14.7734 139.938 14.2109C139.391 13.6328 139.117 12.9141 139.117 12.0547ZM153.391 44V22.8594H149.523V18.6406H153.391V16.3203C153.391 13.5078 154.172 11.3359 155.734 9.80469C157.297 8.27344 159.484 7.50781 162.297 7.50781C163.297 7.50781 164.359 7.64844 165.484 7.92969L165.344 12.3828C164.719 12.2578 163.992 12.1953 163.164 12.1953C160.445 12.1953 159.086 13.5938 159.086 16.3906V18.6406H164.242V22.8594H159.086V44H153.391ZM177.273 35.8438L182.43 18.6406H188.5L178.422 47.8438C176.875 52.1094 174.25 54.2422 170.547 54.2422C169.719 54.2422 168.805 54.1016 167.805 53.8203V49.4141L168.883 49.4844C170.32 49.4844 171.398 49.2188 172.117 48.6875C172.852 48.1719 173.43 47.2969 173.852 46.0625L174.672 43.8828L165.766 18.6406H171.906L177.273 35.8438Z" fill="#FAD02C"/>
<path d="M7 36.4807C40.0275 26.7298 56.6561 26.2856 82.1825 36.4807C92.7399 42.3718 98.5646 42.6396 108.747 36.4807C116.982 31.3082 121.689 30.9568 130.299 36.4807C135.859 41.1308 138.569 39.7189 143.331 36.4807C148.633 31.2829 151.941 31.4217 158.367 36.4807C163.279 41.9097 166.371 40.8089 170.898 36.4807C175.839 29.5911 178.992 29.3216 185.433 36.4807C190.435 41.592 193.205 42.2175 200.47 36.4807C205.599 32.143 208.27 33.4752 213 36.4807" stroke="#FAD02C" stroke-opacity="0.5" stroke-width="1.5"/>
<path d="M16 36.4807C49.0275 26.7298 65.6561 26.2856 91.1825 36.4807C101.74 42.3718 107.565 42.6396 117.747 36.4807C125.982 31.3082 130.689 30.9568 139.299 36.4807C144.859 41.1308 147.569 39.7189 152.331 36.4807C157.633 31.2829 160.941 31.4217 167.367 36.4807C172.279 41.9097 175.371 40.8089 179.898 36.4807C184.839 29.5911 187.992 29.3216 194.433 36.4807C199.435 41.592 202.205 42.2175 209.47 36.4807C214.599 32.143 217.27 33.4752 222 36.4807" stroke="#FAD02C" stroke-opacity="0.4" stroke-width="1.5"/>
<path d="M1 36.4807C34.0275 26.7298 50.6561 26.2856 76.1825 36.4807C86.7399 42.3718 92.5646 42.6396 102.747 36.4807C110.982 31.3082 115.689 30.9568 124.299 36.4807C129.859 41.1308 132.569 39.7189 137.331 36.4807C142.633 31.2829 145.941 31.4217 152.367 36.4807C157.279 41.9097 160.371 40.8089 164.898 36.4807C169.839 29.5911 172.992 29.3216 179.433 36.4807C184.435 41.592 187.205 42.2175 194.47 36.4807C199.599 32.143 202.27 33.4752 207 36.4807" stroke="#FAD02C" stroke-opacity="0.3" stroke-width="1.5"/>
</svg>
