<svg width="223" height="59" viewBox="0 0 223 59" fill="none" xmlns="http://www.w3.org/2000/svg">
<path d="M37.1328 37.1094C37.1328 36.0938 36.7109 35.3203 35.8672 34.7891C35.0391 34.2578 33.6562 33.7891 31.7188 33.3828C29.7812 32.9766 28.1641 32.4609 26.8672 31.8359C24.0234 30.4609 22.6016 28.4688 22.6016 25.8594C22.6016 23.6719 23.5234 21.8438 25.3672 20.375C27.2109 18.9062 29.5547 18.1719 32.3984 18.1719C35.4297 18.1719 37.875 18.9219 39.7344 20.4219C41.6094 21.9219 42.5469 23.8672 42.5469 26.2578H36.8516C36.8516 25.1641 36.4453 24.2578 35.6328 23.5391C34.8203 22.8047 33.7422 22.4375 32.3984 22.4375C31.1484 22.4375 30.125 22.7266 29.3281 23.3047C28.5469 23.8828 28.1562 24.6562 28.1562 25.625C28.1562 26.5 28.5234 27.1797 29.2578 27.6641C29.9922 28.1484 31.4766 28.6406 33.7109 29.1406C35.9453 29.625 37.6953 30.2109 38.9609 30.8984C40.2422 31.5703 41.1875 32.3828 41.7969 33.3359C42.4219 34.2891 42.7344 35.4453 42.7344 36.8047C42.7344 39.0859 41.7891 40.9375 39.8984 42.3594C38.0078 43.7656 35.5312 44.4688 32.4688 44.4688C30.3906 44.4688 28.5391 44.0938 26.9141 43.3438C25.2891 42.5938 24.0234 41.5625 23.1172 40.25C22.2109 38.9375 21.7578 37.5234 21.7578 36.0078H27.2891C27.3672 37.3516 27.875 38.3906 28.8125 39.125C29.75 39.8438 30.9922 40.2031 32.5391 40.2031C34.0391 40.2031 35.1797 39.9219 35.9609 39.3594C36.7422 38.7812 37.1328 38.0312 37.1328 37.1094ZM56.5859 35.8438L61.7422 18.6406H67.8125L57.7344 47.8438C56.1875 52.1094 53.5625 54.2422 49.8594 54.2422C49.0312 54.2422 48.1172 54.1016 47.1172 53.8203V49.4141L48.1953 49.4844C49.6328 49.4844 50.7109 49.2188 51.4297 48.6875C52.1641 48.1719 52.7422 47.2969 53.1641 46.0625L53.9844 43.8828L45.0781 18.6406H51.2188L56.5859 35.8438ZM76.3906 18.6406L76.5547 21.5703C78.4297 19.3047 80.8906 18.1719 83.9375 18.1719C89.2188 18.1719 91.9062 21.1953 92 27.2422V44H86.3047V27.5703C86.3047 25.9609 85.9531 24.7734 85.25 24.0078C84.5625 23.2266 83.4297 22.8359 81.8516 22.8359C79.5547 22.8359 77.8438 23.875 76.7188 25.9531V44H71.0234V18.6406H76.3906ZM96.7578 31.1094C96.7578 27.1406 97.6641 23.9922 99.4766 21.6641C101.289 19.3359 103.742 18.1719 106.836 18.1719C109.664 18.1719 111.906 19.1641 113.562 21.1484L113.891 18.6406H118.953V53.75H113.258V41.8438C111.602 43.5938 109.445 44.4688 106.789 44.4688C103.758 44.4688 101.328 43.2891 99.5 40.9297C97.6719 38.5547 96.7578 35.2812 96.7578 31.1094ZM102.453 31.6016C102.453 34.1953 102.961 36.2344 103.977 37.7188C105.008 39.1875 106.43 39.9219 108.242 39.9219C110.492 39.9219 112.164 38.9609 113.258 37.0391V25.5078C112.164 23.6641 110.508 22.7422 108.289 22.7422C106.477 22.7422 105.047 23.4688 104 24.9219C102.969 26.375 102.453 28.6016 102.453 31.6016ZM131.164 44H125.469V18.6406H131.164V44ZM125.117 12.0547C125.117 11.1797 125.391 10.4531 125.938 9.875C126.5 9.29687 127.297 9.00781 128.328 9.00781C129.359 9.00781 130.156 9.29687 130.719 9.875C131.281 10.4531 131.562 11.1797 131.562 12.0547C131.562 12.9141 131.281 13.6328 130.719 14.2109C130.156 14.7734 129.359 15.0547 128.328 15.0547C127.297 15.0547 126.5 14.7734 125.938 14.2109C125.391 13.6328 125.117 12.9141 125.117 12.0547ZM139.391 44V22.8594H135.523V18.6406H139.391V16.3203C139.391 13.5078 140.172 11.3359 141.734 9.80469C143.297 8.27344 145.484 7.50781 148.297 7.50781C149.297 7.50781 150.359 7.64844 151.484 7.92969L151.344 12.3828C150.719 12.2578 149.992 12.1953 149.164 12.1953C146.445 12.1953 145.086 13.5938 145.086 16.3906V18.6406H150.242V22.8594H145.086V44H139.391ZM163.273 35.8438L168.43 18.6406H174.5L164.422 47.8438C162.875 52.1094 160.25 54.2422 156.547 54.2422C155.719 54.2422 154.805 54.1016 153.805 53.8203V49.4141L154.883 49.4844C156.32 49.4844 157.398 49.2188 158.117 48.6875C158.852 48.1719 159.43 47.2969 159.852 46.0625L160.672 43.8828L151.766 18.6406H157.906L163.273 35.8438Z" fill="#FAD02C"/>
<path d="M7 35.4807C40.0275 25.7298 56.6561 25.2856 82.1825 35.4807C92.7399 41.3718 98.5646 41.6396 108.747 35.4807C116.982 30.3082 121.689 29.9568 130.299 35.4807C135.859 40.1308 138.569 38.7189 143.331 35.4807C148.633 30.2829 151.941 30.4217 158.367 35.4807C163.279 40.9097 166.371 39.8089 170.898 35.4807C175.839 28.5911 178.992 28.3216 185.433 35.4807C190.435 40.592 193.205 41.2175 200.47 35.4807C205.599 31.143 208.27 32.4752 213 35.4807" stroke="#FAD02C" stroke-opacity="0.5" stroke-width="1.5"/>
<path d="M16 35.4807C49.0275 25.7298 65.6561 25.2856 91.1825 35.4807C101.74 41.3718 107.565 41.6396 117.747 35.4807C125.982 30.3082 130.689 29.9568 139.299 35.4807C144.859 40.1308 147.569 38.7189 152.331 35.4807C157.633 30.2829 160.941 30.4217 167.367 35.4807C172.279 40.9097 175.371 39.8089 179.898 35.4807C184.839 28.5911 187.992 28.3216 194.433 35.4807C199.435 40.592 202.205 41.2175 209.47 35.4807C214.599 31.143 217.27 32.4752 222 35.4807" stroke="#FAD02C" stroke-opacity="0.4" stroke-width="1.5"/>
<path d="M1 35.4807C34.0275 25.7298 50.6561 25.2856 76.1825 35.4807C86.7399 41.3718 92.5646 41.6396 102.747 35.4807C110.982 30.3082 115.689 29.9568 124.299 35.4807C129.859 40.1308 132.569 38.7189 137.331 35.4807C142.633 30.2829 145.941 30.4217 152.367 35.4807C157.279 40.9097 160.371 39.8089 164.898 35.4807C169.839 28.5911 172.992 28.3216 179.433 35.4807C184.435 40.592 187.205 41.2175 194.47 35.4807C199.599 31.143 202.27 32.4752 207 35.4807" stroke="#FAD02C" stroke-opacity="0.3" stroke-width="1.5"/>
</svg>
